<svg width="200" height="200" viewBox="0 0 200 200" fill="none" xmlns="http://www.w3.org/2000/svg">
  <!-- Film reel outer circle -->
  <circle cx="100" cy="100" r="85" fill="url(#gradient1)" stroke="#10b981" stroke-width="4"/>
  
  <!-- Center circle -->
  <circle cx="100" cy="100" r="35" fill="#1e293b" stroke="#10b981" stroke-width="3"/>
  
  <!-- Film holes (8 holes around) -->
  <circle cx="100" cy="35" r="8" fill="#10b981"/>
  <circle cx="135" cy="50" r="8" fill="#10b981"/>
  <circle cx="150" cy="85" r="8" fill="#10b981"/>
  <circle cx="150" cy="115" r="8" fill="#10b981"/>
  <circle cx="135" cy="150" r="8" fill="#10b981"/>
  <circle cx="100" cy="165" r="8" fill="#10b981"/>
  <circle cx="65" cy="150" r="8" fill="#10b981"/>
  <circle cx="50" cy="115" r="8" fill="#10b981"/>
  
  <!-- Film spokes -->
  <line x1="100" y1="65" x2="100" y2="35" stroke="#10b981" stroke-width="3" stroke-linecap="round"/>
  <line x1="122" y1="72" x2="135" y2="50" stroke="#10b981" stroke-width="3" stroke-linecap="round"/>
  <line x1="135" y1="100" x2="150" y2="85" stroke="#10b981" stroke-width="3" stroke-linecap="round"/>
  <line x1="135" y1="100" x2="150" y2="115" stroke="#10b981" stroke-width="3" stroke-linecap="round"/>
  <line x1="122" y1="128" x2="135" y2="150" stroke="#10b981" stroke-width="3" stroke-linecap="round"/>
  <line x1="100" y1="135" x2="100" y2="165" stroke="#10b981" stroke-width="3" stroke-linecap="round"/>
  <line x1="78" y1="128" x2="65" y2="150" stroke="#10b981" stroke-width="3" stroke-linecap="round"/>
  <line x1="65" y1="100" x2="50" y2="115" stroke="#10b981" stroke-width="3" stroke-linecap="round"/>
  
  <!-- Play button in center -->
  <path d="M 90 85 L 90 115 L 115 100 Z" fill="#10b981"/>
  
  <!-- Gradient definition -->
  <defs>
    <linearGradient id="gradient1" x1="0%" y1="0%" x2="100%" y2="100%">
      <stop offset="0%" style="stop-color:#1e293b;stop-opacity:1" />
      <stop offset="100%" style="stop-color:#334155;stop-opacity:1" />
    </linearGradient>
  </defs>
</svg>
